<svg id="Layer_1" data-name="Layer 1" xmlns="http://www.w3.org/2000/svg" viewBox="0 0 100 67.81"><title>bike</title><path d="M77.33,25.63a18.61,18.61,0,0,0-5.72.9L64.25,10.76h2.53V6.24H53v4.52h6.25l1.35,2.91H37.29l-1.36-2.91h2.53V6.24H28.16v4.52h2.78l2.22,4.76L28.54,26.36A18.53,18.53,0,1,0,41.78,46.42H50.6L62.69,18.1l4.82,10.35a18.53,18.53,0,1,0,9.82-2.82ZM35.73,21,45.46,41.9H41.78a18.54,18.54,0,0,0-9.09-13.76ZM27.48,41.9a3.62,3.62,0,0,0-.41-.61l3.83-8.95a14,14,0,0,1,6.32,9.56ZM23.39,58.17a14,14,0,1,1,3.35-27.62l-3.82,9a4.67,4.67,0,1,0,4.56,6.91h9.74A14,14,0,0,1,23.39,58.17ZM49,38.73,39.4,18.19H57.74ZM77.33,58.17a14,14,0,0,1-7.89-25.59l4,8.59a4.62,4.62,0,0,0-1.08,3,4.67,4.67,0,1,0,5.31-4.62l-4.14-8.87a14,14,0,1,1,3.8,27.5Z"/></svg>