<svg xmlns="http://www.w3.org/2000/svg" viewBox="0 0 80 80" x="0px" y="0px"><title>06_transport_car3</title><g data-name="Layer 3"><path d="M61.19,39H58.81L49.36,27.47A4,4,0,0,0,46.27,26H21.06a4,4,0,0,0-3.73,2.56L13.31,39H7V57h8.08a7,7,0,0,0,13.84,0H53.08a7,7,0,0,0,13.84,0H73V50.81A11.83,11.83,0,0,0,61.19,39ZM22,61a5,5,0,1,1,5-5A5,5,0,0,1,22,61Zm38,0a5,5,0,1,1,5-5A5,5,0,0,1,60,61Zm11-6H66.92a7,7,0,0,0-13.84,0H28.92a7,7,0,0,0-13.84,0H9V41h5.69l4.51-11.72A2,2,0,0,1,21.06,28H46.27a2,2,0,0,1,1.55.73L57.86,41h3.33A9.82,9.82,0,0,1,71,50.81Z"/></g></svg>
