<svg id="Layer_1" data-name="Layer 1" xmlns="http://www.w3.org/2000/svg" viewBox="0 0 16 14.84"><title>car</title><path d="M14.86,5.55l-1.64-4.1A1.5,1.5,0,0,0,11.82.5H4.18a1.5,1.5,0,0,0-1.4.94L1.14,5.54A1.51,1.51,0,0,0,0,7v4a.5.5,0,0,0,.5.5H1V13a.5.5,0,0,0,.5.5h2A.5.5,0,0,0,4,13V11.5h8V13a.5.5,0,0,0,.5.5h2A.5.5,0,0,0,15,13V11.5h.5A.5.5,0,0,0,16,11V7A1.49,1.49,0,0,0,14.86,5.55ZM12,8.5a1,1,0,1,1,1,1A1,1,0,0,1,12,8.5ZM3.71,1.81a.5.5,0,0,1,.47-.31h7.64a.5.5,0,0,1,.47.31L13.76,5.5H2.24ZM3,9.5a1,1,0,1,1,1-1A1,1,0,0,1,3,9.5Z"/></svg>