<svg xmlns:dc="http://purl.org/dc/elements/1.1/" xmlns:cc="http://creativecommons.org/ns#" xmlns:rdf="http://www.w3.org/1999/02/22-rdf-syntax-ns#" xmlns:svg="http://www.w3.org/2000/svg" xmlns="http://www.w3.org/2000/svg" xmlns:sodipodi="http://sodipodi.sourceforge.net/DTD/sodipodi-0.dtd" xmlns:inkscape="http://www.inkscape.org/namespaces/inkscape" version="1.1" x="0px" y="0px" viewBox="0 0 100 100"><g transform="translate(0,-952.36218)"><path style="font-size:medium;font-style:normal;font-variant:normal;font-weight:normal;font-stretch:normal;text-indent:0;text-align:start;text-decoration:none;line-height:normal;letter-spacing:normal;word-spacing:normal;text-transform:none;direction:ltr;block-progression:tb;writing-mode:lr-tb;text-anchor:start;baseline-shift:baseline;opacity:1;color:#000000;fill:#000000;fill-opacity:1;stroke:none;stroke-width:1.24999988000000010;marker:none;visibility:visible;display:inline;overflow:visible;enable-background:accumulate;font-family:Sans;-inkscape-font-specification:Sans" d="M 54 7 C 49.041282 7 45 11.04128 45 16 C 45 20.95872 49.041282 25 54 25 C 58.958718 25 63 20.95872 63 16 C 63 11.04128 58.958718 7 54 7 z M 54 9 C 57.877838 9 61 12.12216 61 16 C 61 19.87784 57.877838 23 54 23 C 50.122162 23 47 19.87784 47 16 C 47 12.12216 50.122162 9 54 9 z M 45 27 C 42.975582 27 41.52231 28.25813 40.375 29.21875 C 40.3691 29.22375 40.34959 29.21375 40.34375 29.21875 L 27.375 39.21875 A 1.0000999 1.0000999 0 0 0 27.03125 39.8125 C 27.03125 39.8125 26.250201 43.9782 25.5 48.1875 C 25.1249 50.2921 24.75038 52.41965 24.46875 54.03125 C 24.327935 54.83705 24.23896 55.5082 24.15625 56 C 24.1149 56.2459 24.054322 56.44635 24.03125 56.59375 C 24.01971 56.66775 24.03845 56.72905 24.03125 56.78125 C 24.02405 56.83325 24 56.8032 24 57 C 24 59.1973 25.802706 61 28 61 C 29.024372 61 29.92224 60.60155 30.59375 60.09375 C 31.26526 59.58605 31.754208 59.01565 31.96875 58.28125 L 35.875 44.625 L 40.5 41.3125 L 38.0625 52.625 C 38.0625 52.625 34.655974 61.27215 31.21875 69.96875 C 29.500138 74.31715 27.769753 78.67305 26.46875 81.96875 C 25.818248 83.61665 25.2616 85.0184 24.875 86 C 24.6817 86.4908 24.545093 86.88185 24.4375 87.15625 C 24.329907 87.43065 24.311403 87.4493 24.25 87.625 C 24.108535 88.0298 24 88.502 24 89 C 24 91.1973 25.802706 93 28 93 C 29.030092 93 29.986451 92.60975 30.6875 91.96875 C 30.895105 91.77895 30.828802 91.8092 30.875 91.75 C 30.9212 91.691 30.96285 91.62255 31.03125 91.53125 C 31.168047 91.34885 31.362816 91.09675 31.59375 90.78125 C 32.055618 90.15035 32.679334 89.26805 33.4375 88.21875 C 34.953832 86.12025 36.957285 83.35315 38.9375 80.59375 C 42.445945 75.704785 45.159356 71.889248 45.90625 70.84375 C 49.306199 75.240345 53.125328 79.914808 56.3125 83.75 C 58.177962 85.9947 59.835964 87.93795 61.03125 89.34375 C 61.628893 90.04675 62.120946 90.62715 62.46875 91.03125 C 62.816554 91.43535 62.956109 91.6043 63.09375 91.75 C 63.82561 92.5248 64.862545 93 66 93 C 68.197294 93 70 91.1973 70 89 C 70 88.4837 69.878229 88.37915 69.75 88.03125 C 69.621771 87.68335 69.441672 87.23435 69.21875 86.71875 C 68.772906 85.68765 68.158864 84.3399 67.40625 82.75 C 65.901023 79.5701 63.90772 75.49665 61.90625 71.46875 C 57.981737 63.57095 54.214725 56.14255 54.0625 55.84375 L 55 51.65625 C 57.387955 52.60555 60.826734 53.9503 64.1875 55.25 C 66.06853 55.9774 67.832936 56.66405 69.1875 57.15625 C 69.864782 57.40235 70.430311 57.6059 70.875 57.75 C 71.097345 57.822 71.303695 57.86235 71.46875 57.90625 C 71.633805 57.95025 71.700012 58 72 58 C 74.197294 58 76 56.1973 76 54 C 76 52.9864 75.534803 52.1353 75.03125 51.5 C 74.527697 50.8646 73.991135 50.43505 73.53125 50.15625 A 1.0000999 1.0000999 0 0 0 73.5 50.125 L 61.8125 43.3125 L 56.9375 31.625 A 1.0000999 1.0000999 0 0 0 56.90625 31.5625 C 56.373946 30.49789 55.811165 29.67299 55.03125 29.09375 C 54.251335 28.51451 53.332039 28.24648 52.1875 28.03125 A 1.0000999 1.0000999 0 0 0 52.15625 28 L 45.15625 27 A 1.0000999 1.0000999 0 0 0 45 27 z M 44.9375 29 L 51.84375 30 C 52.82594 30.18847 53.422 30.40552 53.84375 30.71875 C 54.259529 31.02755 54.616014 31.49777 55.0625 32.375 C 55.07747 32.4044 55.07858 32.4072 55.09375 32.4375 L 60.0625 44.375 A 1.0000999 1.0000999 0 0 0 60.5 44.875 L 72.46875 51.84375 C 72.47615 51.84375 72.49216 51.87 72.5 51.875 C 72.731738 52.0207 73.154368 52.3533 73.46875 52.75 C 73.793762 53.1601 74 53.6111 74 54 C 74 55.084386 73.164659 55.951296 72.09375 56 C 72.074758 55.996125 72.02271 55.98425 71.96875 55.96875 C 71.860832 55.93975 71.702167 55.90875 71.5 55.84375 C 71.095665 55.71275 70.540075 55.52295 69.875 55.28125 C 68.544851 54.79795 66.78066 54.0999 64.90625 53.375 C 61.157431 51.9252 56.942628 50.25315 54.65625 49.34375 A 1.0000999 1.0000999 0 0 0 53.3125 50.0625 L 52.03125 55.78125 A 1.0000999 1.0000999 0 0 0 52.09375 56.46875 C 52.09375 56.46875 56.096691 64.29995 60.09375 72.34375 C 62.09228 76.36575 64.098977 80.43595 65.59375 83.59375 C 66.341136 85.17265 66.977094 86.53875 67.40625 87.53125 C 67.620828 88.02755 67.768854 88.43075 67.875 88.71875 C 67.95461 88.93475 67.989722 89.157836 68 89.125 C 67.93593 90.180677 67.073728 91 66 91 C 65.418723 91 64.89326 90.7582 64.53125 90.375 C 64.58809 90.435 64.313163 90.11895 63.96875 89.71875 C 63.624337 89.31865 63.157862 88.7627 62.5625 88.0625 C 61.371776 86.662 59.734953 84.70695 57.875 82.46875 C 54.155094 77.99255 49.54478 72.34375 45.8125 67.40625 C 43.122669 63.80835 40.011212 58.97315 40 53.03125 C 39.99998 53.02025 40 53.011 40 53 L 42.96875 39.21875 A 1.0000999 1.0000999 0 0 0 41.40625 38.1875 L 34.40625 43.1875 A 1.0000999 1.0000999 0 0 0 34.03125 43.71875 L 30.03125 57.71875 C 30.02093 57.75375 29.771502 58.2002 29.375 58.5 C 28.978498 58.7998 28.478715 59 28 59 C 26.894114 59 26.01645 58.13275 26 57.03125 C 25.999843 57.02025 26 57.01 26 57 C 26.0042 56.972 26.02483 56.94725 26.03125 56.90625 C 26.05212 56.77285 26.08432 56.58565 26.125 56.34375 C 26.20635 55.86005 26.328315 55.1786 26.46875 54.375 C 26.74962 52.7677 27.1251 50.666 27.5 48.5625 C 28.216276 44.54355 28.843625 40.91047 28.90625 40.5625 L 41.625 30.78125 A 1.0000999 1.0000999 0 0 0 41.65625 30.78125 C 42.783631 29.83778 43.791121 29.02656 44.9375 29 z M 38.4375 57.125 C 39.449844 61.849679 42.022148 65.69743 44.1875 68.59375 C 44.330443 68.78285 44.47967 68.996481 44.625 69.1875 C 44.125566 69.886685 40.98991 74.281841 37.3125 79.40625 C 35.332928 82.16475 33.326328 84.93625 31.8125 87.03125 C 31.055586 88.07885 30.425865 88.96935 29.96875 89.59375 C 29.740192 89.90595 29.565709 90.1415 29.4375 90.3125 C 29.37339 90.3975 29.313251 90.459 29.28125 90.5 C 28.931804 90.807 28.498881 91 28 91 C 26.883586 91 26 90.1164 26 89 C 26 88.7817 26.04169 88.5509 26.125 88.3125 C 26.07955 88.4425 26.17436 88.1476 26.28125 87.875 C 26.388139 87.6024 26.556891 87.20915 26.75 86.71875 C 27.136218 85.73815 27.693348 84.36635 28.34375 82.71875 C 29.644554 79.42355 31.343939 75.06695 33.0625 70.71875 C 35.363118 64.897887 37.167385 60.323492 38.4375 57.125 z " transform="translate(0,952.36218)"/></g></svg>
