<svg id="Layer_1" data-name="Layer 1" xmlns="http://www.w3.org/2000/svg" viewBox="0 0 89 124"><title>pedestrian</title><circle cx="52.28" cy="14.18" r="9.76"/><path d="M78,65.81,58.61,33.47c-1.76-3.07-5.46-6.29-12.12-6-5.82.25-15.31,9.67-22,14-3.11,2-3,7.45-3.56,10.7q-1.08,6.39-2.17,12.76C18,69.18,21.61,71.1,25.1,69.2c1.92-1,2.76-3.66,3.1-5.64.86-5.1,2-9.08,2.88-14.19l6.15-5c-2.09,12.49-4,19.87-5.9,36.7-.56,5-1.25,10.09-2.42,11.62-3.8,5-6.71,9.82-10.56,14.73-5.45,6.95,4.25,12.28,9.25,5.92l10.24-13c4.84-6.17,4.63-16.23,5.89-23.77q5.75,12.41,11.48,24.8,2.65,5.74,5.32,11.48c3.31,7.15,13.51,3.45,10-4-4.93-10.66-8.86-21.31-13.79-32-1.54-3.33-4-6.57-3.43-10.19l2.58-17.77.3-1.73,14.1,23.35a4.49,4.49,0,0,0,3.85,2.18A4.43,4.43,0,0,0,76.49,72,4.49,4.49,0,0,0,78,65.81Z"/></svg>