<svg id="Layer_1" data-name="Layer 1" xmlns="http://www.w3.org/2000/svg" xmlns:xlink="http://www.w3.org/1999/xlink" viewBox="0 0 131 32"><defs><style>.cls-1,.cls-2{fill:none;}.cls-2{clip-rule:evenodd;}.cls-3{clip-path:url(#clip-path);}.cls-4{fill:#075075;}.cls-5{clip-path:url(#clip-path-2);}.cls-6{isolation:isolate;}.cls-7{clip-path:url(#clip-path-4);}.cls-8{clip-path:url(#clip-path-5);}.cls-9{fill:#9c51cc;}.cls-10{clip-path:url(#clip-path-7);}</style><clipPath id="clip-path"><rect class="cls-1" y="1" width="131" height="31"/></clipPath><clipPath id="clip-path-2"><rect class="cls-1" y="2.08" width="46.42" height="28.29"/></clipPath><clipPath id="clip-path-4"><rect class="cls-1" y="2" width="47" height="29"/></clipPath><clipPath id="clip-path-5"><path class="cls-2" d="M23.21,2.08C14,2.08,5.66,7.55,0,16.23,5.66,24.9,14,30.37,23.21,30.37S40.76,24.9,46.42,16.23c-5.66-8.68-14-14.15-23.21-14.15m0,23a8.84,8.84,0,1,1,8.9-8.84,8.89,8.89,0,0,1-8.9,8.84"/></clipPath><clipPath id="clip-path-7"><path class="cls-2" d="M23.21,12.32a5.16,5.16,0,1,0,5.16,5.15,5.16,5.16,0,0,0-5.16-5.15"/></clipPath></defs><title>tozero_logo</title><g class="cls-3"><path class="cls-4" d="M64.39,8.82c.46,0,.66.16.66.62v1.72c0,.46-.2.63-.66.63H61.57V23.13c0,.46-.16.66-.62.66H58.58c-.47,0-.64-.2-.64-.66V11.79H55.12c-.46,0-.66-.17-.66-.63V9.44c0-.46.2-.62.66-.62Z"/><path class="cls-4" d="M67.4,12.41c0-1.89,1.47-3.76,5.61-3.76s5.63,1.87,5.63,3.76V20.2C78.64,22.09,77.15,24,73,24S67.4,22.09,67.4,20.2Zm7.61.64c0-1-.92-1.43-2-1.43s-2,.42-2,1.43v6.51c0,1,.9,1.43,2,1.43s2-.42,2-1.43Z"/><path class="cls-4" d="M89.26,12.78c.46,0,.66.16.66.62V15a1,1,0,0,1-.13.49l-4,5.46H89.7c.46,0,.66.15.66.61v1.61c0,.46-.2.64-.66.64H82.15c-.46,0-.66-.18-.66-.64V21.54a.87.87,0,0,1,.13-.46l4-5.44h-3c-.47,0-.66-.17-.66-.63V13.4c0-.46.19-.62.66-.62Z"/><path class="cls-4" d="M102.06,18.48c0,.42-.17.6-.59.6H96.12V20.4c0,.66.4,1,1.32,1s1.34-.31,1.34-1v0c0-.47.18-.64.64-.64h1.89c.47,0,.64.17.64.64v.15c0,2.09-1.19,3.43-4.51,3.43s-4.75-1.34-4.75-3.43V16c0-2.09,1.43-3.43,4.75-3.43S102.06,14,102.06,16Zm-5.94-1.65h2.66v-.64c0-.66-.41-1-1.34-1s-1.32.33-1.32,1Z"/><path class="cls-4" d="M112.31,13.25V15c0,.46-.19.62-.66.66a5.12,5.12,0,0,0-3,1.21v6.3c0,.46-.15.66-.61.66H105.8c-.46,0-.64-.2-.64-.66V13.42c0-.46.18-.64.64-.64h2.11c.46,0,.6.18.64.64l.07.62a3.84,3.84,0,0,1,3-1.43C112.12,12.61,112.31,12.78,112.31,13.25Z"/><path class="cls-4" d="M114.56,16c0-2.09,1.71-3.43,5-3.43s5,1.34,5,3.43v4.49c0,2.09-1.71,3.43-5,3.43s-5-1.34-5-3.43Zm6.55.29c0-.73-.61-1-1.52-1s-1.51.24-1.51,1v3.89c0,.75.61,1,1.51,1s1.52-.24,1.52-1Z"/></g><g class="cls-5"><g class="cls-3"><g class="cls-6"><g class="cls-7"><g class="cls-8"><g class="cls-7"><rect class="cls-9" x="-5" y="-2.92" width="56.42" height="38.29"/></g></g></g></g></g></g><g class="cls-10"><g class="cls-3"><rect class="cls-4" x="13.05" y="7.32" width="20.32" height="20.32"/></g></g></svg>