<svg id="Layer_1" data-name="Layer 1" xmlns="http://www.w3.org/2000/svg" viewBox="0 0 16 17.17"><title>bus</title><path d="M15.5,2H14V1.5A1.5,1.5,0,0,0,12.5,0h-9A1.5,1.5,0,0,0,2,1.5V2H.5a.5.5,0,0,0-.5.5v2A.5.5,0,0,0,.5,5,.5.5,0,0,0,1,4.5V3H2V13a1,1,0,0,0,1,1v1.5a.5.5,0,0,0,.5.5h2a.5.5,0,0,0,.5-.5V14h4v1.5a.5.5,0,0,0,.5.5h2a.5.5,0,0,0,.5-.5V14a1,1,0,0,0,1-1V3h1V4.5a.5.5,0,0,0,1,0v-2A.5.5,0,0,0,15.5,2ZM5.5,12h-1a.5.5,0,0,1,0-1h1a.5.5,0,0,1,0,1Zm6,0h-1a.5.5,0,0,1,0-1h1a.5.5,0,0,1,0,1ZM13,9H3V2l10,.06Z"/></svg>