<svg id="Layer_1" data-name="Layer 1" xmlns="http://www.w3.org/2000/svg" xmlns:xlink="http://www.w3.org/1999/xlink" viewBox="0 0 322.84 39.21"><defs><style>.cls-1{fill:#fff;}.cls-2{isolation:isolate;}.cls-3{fill:#075075;}.cls-4{mask:url(#mask);}.cls-5{fill:#9c51cc;}</style><mask id="mask" x="7.93" y="9.7" width="32.5" height="19.8" maskUnits="userSpaceOnUse"><g id="mask-2"><polygon id="path-1" class="cls-1" points="7.93 9.7 40.43 9.7 40.43 29.51 7.93 29.51 7.93 9.7"/></g></mask></defs><title>vz_logo</title><g id="Top-Header"><g id="_1" data-name="1"><g id="logo"><g id="Group-4"><g id="Vision-Zero-Viewpoin" class="cls-2"><g class="cls-2"><path class="cls-3" d="M51,27.15a.77.77,0,0,1-.81-.66l-4-13.64c-.13-.42,0-.66.49-.66h2.59c.47,0,.66.24.77.66L51.67,19a29.25,29.25,0,0,1,.55,3.58A35.58,35.58,0,0,1,52.84,19l1.67-6.16c.11-.42.31-.66.77-.66h2.38c.46,0,.61.24.48.66l-4,13.64a.77.77,0,0,1-.81.66Z"/><path class="cls-3" d="M64.52,26.49c0,.46-.15.66-.61.66H61.53c-.46,0-.64-.2-.64-.66V12.85c0-.47.18-.66.64-.66h2.38c.46,0,.61.19.61.66Z"/><path class="cls-3" d="M75.21,16.26c0-1-.7-1.39-1.71-1.39s-1.74.37-1.74,1.39v.22a1,1,0,0,0,.7.94l3.7,1.26A3.55,3.55,0,0,1,78.91,22v1.56c0,1.89-1.34,3.76-5.48,3.76s-5.52-1.87-5.52-3.76V22.09c0-.47.17-.66.64-.66h2.29c.46,0,.61.19.61.66v1c0,1,.86,1.38,1.94,1.38s2-.37,2-1.38v-.44c0-.8-1.06-1.17-1.9-1.48L70.29,20a3.26,3.26,0,0,1-2.05-2.92V15.77c0-1.89,1.14-3.76,5.21-3.76s5.31,1.87,5.31,3.76v.82c0,.46-.18.66-.64.66H75.83c-.46,0-.62-.2-.62-.66Z"/><path class="cls-3" d="M85.82,26.49c0,.46-.16.66-.62.66H82.83c-.47,0-.64-.2-.64-.66V12.85c0-.47.17-.66.64-.66H85.2c.46,0,.62.19.62.66Z"/><path class="cls-3" d="M89.42,15.77C89.42,13.88,90.9,12,95,12s5.63,1.87,5.63,3.76v7.79c0,1.89-1.5,3.76-5.63,3.76s-5.62-1.87-5.62-3.76Zm7.62.64c0-1-.93-1.43-2-1.43s-2,.42-2,1.43v6.51c0,1,.91,1.43,2,1.43s2-.42,2-1.43Z"/><path class="cls-3" d="M115.52,26.49c0,.46-.16.66-.62.66h-2.15a.58.58,0,0,1-.6-.31L108.63,21a14.31,14.31,0,0,1-.95-2v7.48c0,.46-.15.66-.61.66h-2.16c-.46,0-.64-.2-.64-.66V12.85c0-.47.18-.66.64-.66h2.16a.55.55,0,0,1,.55.26l3.72,6.23a16.79,16.79,0,0,1,.77,1.65V12.85c0-.47.17-.66.64-.66h2.15c.46,0,.62.19.62.66Z"/><path class="cls-3" d="M132.66,12.19c.46,0,.66.15.66.61v1.72a.91.91,0,0,1-.14.48l-5.1,9.18h5c.46,0,.66.15.66.61v1.72c0,.46-.2.64-.66.64h-8.67c-.46,0-.66-.18-.66-.64V24.79a.86.86,0,0,1,.11-.44L129,15.16h-4.2c-.47,0-.66-.18-.66-.64V12.8c0-.46.19-.61.66-.61Z"/><path class="cls-3" d="M137.19,27.15c-.47,0-.64-.2-.64-.66V12.85c0-.47.17-.66.64-.66h7.52c.46,0,.66.15.66.61v1.72c0,.46-.2.64-.66.64h-4.53V18h4.18c.46,0,.66.15.66.61v1.61c0,.46-.2.64-.66.64h-4.18v3.3h4.75c.46,0,.66.15.66.61v1.72c0,.46-.2.64-.66.64Z"/><path class="cls-3" d="M157.56,21.07l2.16,5.42c.15.39-.14.66-.62.66h-2.38c-.41,0-.5-.35-.64-.66l-1.93-4.87H152.5v4.87c0,.46-.16.66-.62.66h-2.37c-.47,0-.64-.2-.64-.66V12.85c0-.47.17-.66.64-.66h4.75c4.14,0,5.59,1.87,5.59,3.76v1.91A3.4,3.4,0,0,1,157.56,21.07Zm-5.06-5.91v3.49h1.76c1.08,0,2-.41,2-1.43v-.63c0-1-.92-1.43-2-1.43Z"/><path class="cls-3" d="M163.12,15.77c0-1.89,1.48-3.76,5.61-3.76s5.64,1.87,5.64,3.76v7.79c0,1.89-1.5,3.76-5.64,3.76s-5.61-1.87-5.61-3.76Zm7.62.64c0-1-.93-1.43-2-1.43s-2,.42-2,1.43v6.51c0,1,.91,1.43,2,1.43s2-.42,2-1.43Z"/><path class="cls-3" d="M186.84,27.15a.77.77,0,0,1-.81-.66l-4-13.64c-.13-.42,0-.66.49-.66h2.59c.47,0,.66.24.77.66L187.54,19a29.25,29.25,0,0,1,.55,3.58,35.58,35.58,0,0,1,.62-3.58l1.67-6.16c.11-.42.31-.66.77-.66h2.38c.46,0,.62.24.48.66l-4,13.64a.77.77,0,0,1-.81.66Z"/><path class="cls-3" d="M200.39,26.49c0,.46-.15.66-.61.66H197.4c-.46,0-.64-.2-.64-.66V12.85c0-.47.18-.66.64-.66h2.38c.46,0,.61.19.61.66Z"/><path class="cls-3" d="M204.86,27.15c-.46,0-.64-.2-.64-.66V12.85c0-.47.18-.66.64-.66h7.52c.46,0,.66.15.66.61v1.72c0,.46-.2.64-.66.64h-4.53V18H212c.46,0,.66.15.66.61v1.61c0,.46-.2.64-.66.64h-4.18v3.3h4.75c.46,0,.66.15.66.61v1.72c0,.46-.2.64-.66.64Z"/><path class="cls-3" d="M228.18,19a20.39,20.39,0,0,1,.37,2.38A22.39,22.39,0,0,1,229,19l1.54-6.16c.11-.42.31-.66.77-.66h2.07c.46,0,.59.24.48.66l-3.43,13.64a.74.74,0,0,1-.81.66h-2.32c-.39,0-.61-.24-.72-.66l-1.59-6.34a21.1,21.1,0,0,1-.3-2.22c0,.22-.2,1.65-.33,2.24l-1.59,6.32a.74.74,0,0,1-.81.66H219.6c-.4,0-.62-.24-.73-.66l-3.43-13.64c-.11-.42,0-.66.48-.66h2.42c.47,0,.66.24.77.66l1.5,6.16c.15.68.31,1.73.35,1.95,0-.15.18-1.07.4-1.95l1.56-6.16c.11-.42.31-.66.77-.66h2.22c.46,0,.66.24.77.66Z"/><path class="cls-3" d="M240.17,22.06v4.43c0,.46-.16.66-.62.66h-2.37c-.47,0-.64-.2-.64-.66V12.85c0-.47.17-.66.64-.66h4.75c4.13,0,5.59,1.87,5.59,3.76V18.3c0,1.89-1.46,3.76-5.59,3.76Zm0-6.9v3.93h1.76c1.08,0,2-.41,2-1.43V16.59c0-1-.92-1.43-2-1.43Z"/><path class="cls-3" d="M250.4,15.77c0-1.89,1.47-3.76,5.61-3.76s5.63,1.87,5.63,3.76v7.79c0,1.89-1.5,3.76-5.63,3.76s-5.61-1.87-5.61-3.76Zm7.61.64c0-1-.92-1.43-2-1.43s-2,.42-2,1.43v6.51c0,1,.9,1.43,2,1.43s2-.42,2-1.43Z"/><path class="cls-3" d="M268.88,26.49c0,.46-.16.66-.62.66h-2.38c-.46,0-.63-.2-.63-.66V12.85c0-.47.17-.66.63-.66h2.38c.46,0,.62.19.62.66Z"/><path class="cls-3" d="M284,26.49c0,.46-.16.66-.62.66h-2.15a.58.58,0,0,1-.6-.31L277.06,21a13.17,13.17,0,0,1-.94-2v7.48c0,.46-.16.66-.62.66h-2.16c-.46,0-.63-.2-.63-.66V12.85c0-.47.17-.66.63-.66h2.16c.29,0,.46.08.55.26l3.72,6.23a16.79,16.79,0,0,1,.77,1.65V12.85c0-.47.17-.66.64-.66h2.15c.46,0,.62.19.62.66Z"/><path class="cls-3" d="M296.55,12.19c.47,0,.66.15.66.61v1.72c0,.46-.19.64-.66.64h-2.81V26.49c0,.46-.16.66-.62.66h-2.37c-.47,0-.64-.2-.64-.66V15.16h-2.82c-.46,0-.66-.18-.66-.64V12.8c0-.46.2-.61.66-.61Z"/><path class="cls-3" d="M306.7,16.26c0-1-.71-1.39-1.72-1.39s-1.74.37-1.74,1.39v.22a1,1,0,0,0,.71.94l3.69,1.26A3.55,3.55,0,0,1,310.39,22v1.56c0,1.89-1.34,3.76-5.48,3.76s-5.52-1.87-5.52-3.76V22.09c0-.47.18-.66.64-.66h2.29c.46,0,.61.19.61.66v1c0,1,.86,1.38,1.94,1.38s2-.37,2-1.38v-.44c0-.8-1.06-1.17-1.89-1.48L301.77,20a3.26,3.26,0,0,1-2-2.92V15.77c0-1.89,1.15-3.76,5.22-3.76s5.3,1.87,5.3,3.76v.82c0,.46-.18.66-.64.66h-2.29c-.46,0-.61-.2-.61-.66Z"/></g></g><g id="Group-6"><g id="Group-3"><g class="cls-4"><path id="Fill-1" class="cls-5" d="M24.18,25.79a6.19,6.19,0,1,1,6.23-6.18,6.21,6.21,0,0,1-6.23,6.18m0-16.09c-6.48,0-12.29,3.84-16.25,9.91,4,6.07,9.77,9.9,16.25,9.9s12.28-3.83,16.25-9.9c-4-6.07-9.78-9.91-16.25-9.91"/></g></g><path id="Fill-4" class="cls-3" d="M24.18,16.87a3.61,3.61,0,1,0,3.61,3.61,3.61,3.61,0,0,0-3.61-3.61"/></g></g></g></g></g></svg>